<?xml version="1.0" encoding="UTF-8" standalone="no"?>
<!DOCTYPE svg  PUBLIC '-//W3C//DTD SVG 1.1//EN'  'http://www.w3.org/Graphics/SVG/1.1/DTD/svg11.dtd'>
<svg xmlns="http://www.w3.org/2000/svg" height="24" width="24" version="1.1" xmlns:xlink="http://www.w3.org/1999/xlink" viewBox="0 0 24 24">
 <path d="m19.45 13.29l-1.95-1.29 1.95-1.29m-6.68 8.07v-3.61l3.36-2.24 2.7 1.81m-6.83-0.91l-2.74-1.83 2.74-1.83 2.74 1.83m-3.51 6.78l-6.06-4.04 2.7-1.81 3.36 2.24m-6.68-4.46l1.95 1.29-1.95 1.29m6.68-8.07v3.61l-3.36 2.24-2.7-1.81m7.6-4.04l6.06 4.04-2.7 1.81-3.36-2.24m8.23 0.33v-0.04c0-0.02 0-0.04-0.03-0.06 0-0.01 0-0.03-0.01-0.06 0 0-0.01 0-0.02-0.04 0-0.01-0.01-0.02-0.02-0.03 0-0.02-0.01-0.04-0.02-0.05-0.01-0.02-0.02-0.03-0.02-0.04-0.01-0.02-0.03-0.03-0.04-0.05-0.01-0.01-0.01-0.02-0.02-0.03a0.04 0.04 0 0 0 -0.04 -0.04l-0.03-0.03c-0.02-0.02-0.03-0.03-0.05-0.04l-0.03-0.03c-0.01 0-0.01 0-0.01-0.01l-8.23-5.48c-0.26-0.17-0.6-0.17-0.86 0l-8.23 5.48c0 0.01 0 0.01-0.01 0.01l-0.03 0.03c-0.02 0.01-0.03 0.02-0.05 0.04l-0.03 0.03-0.04 0.04c-0.01 0.01-0.01 0.02-0.02 0.03-0.01 0.02-0.03 0.03-0.04 0.05 0 0.01-0.01 0.02-0.02 0.04-0.01 0.01-0.02 0.03-0.02 0.05-0.01 0.01-0.02 0.02-0.02 0.03-0.01 0.04-0.01 0.04-0.02 0.04-0.01 0.03-0.01 0.05-0.01 0.06-0.03 0.02-0.03 0.04-0.03 0.06v0.04 0.1 5.48 0.1 0.04c0 0.02 0 0.04 0.03 0.06 0 0.01 0 0.03 0.01 0.06 0.01 0 0.01 0 0.02 0.04 0 0.01 0.01 0.02 0.02 0.03 0 0.02 0.01 0.04 0.02 0.05 0.01 0.02 0.02 0.03 0.02 0.04 0.01 0.02 0.03 0.03 0.04 0.05 0.01 0.01 0.01 0.02 0.02 0.03 0.02 0.01 0.03 0.03 0.04 0.04l0.03 0.03c0.02 0.02 0.03 0.03 0.05 0.04l0.03 0.03c0.01 0 0.01 0 0.01 0.01l8.23 5.48c0.13 0.09 0.28 0.13 0.43 0.13s0.3-0.04 0.43-0.13l8.23-5.48c0-0.01 0-0.01 0.01-0.01l0.03-0.03c0.02-0.01 0.03-0.02 0.05-0.04l0.03-0.03c0.01-0.01 0.02-0.03 0.04-0.04 0.01-0.01 0.01-0.02 0.02-0.03 0.01-0.02 0.03-0.03 0.04-0.05 0-0.01 0.01-0.02 0.02-0.04 0.01-0.01 0.02-0.03 0.02-0.05 0.01-0.01 0.02-0.02 0.02-0.03 0.01-0.04 0.02-0.04 0.02-0.04 0.01-0.03 0.01-0.05 0.01-0.06 0.03-0.02 0.03-0.04 0.03-0.06v-0.04-0.1-5.48-0.1z"/>
</svg>
