<?xml version="1.0" encoding="iso-8859-1"?>
<!-- Generator: Adobe Illustrator 16.0.0, SVG Export Plug-In . SVG Version: 6.00 Build 0)  -->
<!DOCTYPE svg PUBLIC "-//W3C//DTD SVG 1.1//EN" "http://www.w3.org/Graphics/SVG/1.1/DTD/svg11.dtd">
<svg version="1.1" id="Capa_1" xmlns="http://www.w3.org/2000/svg" xmlns:xlink="http://www.w3.org/1999/xlink" x="0px" y="0px"
	 width="53.251px" height="53.251px" viewBox="0 0 53.251 53.251" style="enable-background:new 0 0 53.251 53.251;"
	 xml:space="preserve">
<g>
	<g>
		<path d="M12.61,21.022h28.03c0.644,0,1.168-0.523,1.168-1.168c0-0.642-0.524-1.167-1.168-1.167h-0.06
			c-0.528-6.41-5.371-11.588-11.619-12.637v-1.67h-2.044V0.292C26.917,0.133,26.786,0,26.625,0s-0.292,0.133-0.292,0.292v4.087
			H24.29v1.67c-6.248,1.049-11.09,6.227-11.621,12.637H12.61c-0.644,0-1.167,0.525-1.167,1.167
			C11.443,20.499,11.966,21.022,12.61,21.022z"/>
		<path d="M46.48,50.332h-1.46V36.9h1.46c0.808,0,1.46-0.65,1.46-1.46c0-0.803-0.652-1.46-1.46-1.46H6.771
			c-0.806,0-1.46,0.657-1.46,1.46c0,0.81,0.654,1.46,1.46,1.46h1.46v13.432h-1.46c-0.806,0-1.46,0.656-1.46,1.459
			c0,0.811,0.654,1.46,1.46,1.46H46.48c0.808,0,1.46-0.649,1.46-1.46C47.94,50.99,47.288,50.332,46.48,50.332z M40.932,50.332H38.48
			V36.9h2.452V50.332z M25.399,36.9h2.452v13.432h-2.452V36.9z M21.312,50.332h-2.453V36.9h2.453V50.332z M31.94,36.9h2.452v13.432
			H31.94V36.9z M12.318,36.9h2.452v13.432h-2.452V36.9z"/>
		<path d="M10.859,25.986h1.471c0,0.022-0.012,0.042-0.012,0.058v6.302h2.92v-6.302c0-0.021-0.011-0.042-0.011-0.058h1.387
			c0,0.022-0.011,0.042-0.011,0.058v6.302h2.919v-6.302c0-0.021-0.011-0.042-0.011-0.058h1.387c0,0.022-0.011,0.042-0.011,0.058
			v6.302h2.92v-6.302c0-0.021-0.012-0.042-0.012-0.058h1.387c0,0.022-0.012,0.042-0.012,0.058v6.302h2.92v-6.302
			c0-0.021-0.012-0.042-0.012-0.058h1.387c0,0.022-0.012,0.042-0.012,0.058v6.302h2.92v-6.302c0-0.021-0.011-0.042-0.011-0.058
			h1.387c0,0.022-0.012,0.042-0.012,0.058v6.302h2.92v-6.302c0-0.021-0.012-0.042-0.012-0.058h1.387
			c0,0.022-0.011,0.042-0.011,0.058v6.302h2.92v-6.302c0-0.021-0.012-0.042-0.012-0.058h1.471c0.808,0,1.46-0.651,1.46-1.46
			c0-0.807-0.652-1.46-1.46-1.46H10.868c-0.805,0-1.46,0.653-1.46,1.46C9.408,25.331,10.052,25.986,10.859,25.986z"/>
	</g>
</g>
<g>
</g>
<g>
</g>
<g>
</g>
<g>
</g>
<g>
</g>
<g>
</g>
<g>
</g>
<g>
</g>
<g>
</g>
<g>
</g>
<g>
</g>
<g>
</g>
<g>
</g>
<g>
</g>
<g>
</g>
</svg>
