<?xml version="1.0" encoding="UTF-8" standalone="no"?>
<!DOCTYPE svg PUBLIC "-//W3C//DTD SVG 1.1//EN" "http://www.w3.org/Graphics/SVG/1.1/DTD/svg11.dtd">
<svg width="100%" height="100%" viewBox="0 0 987 392" version="1.1" xmlns="http://www.w3.org/2000/svg" xmlns:xlink="http://www.w3.org/1999/xlink" xml:space="preserve" style="fill-rule:evenodd;clip-rule:evenodd;stroke-linejoin:round;stroke-miterlimit:1.41421;">
    <g transform="matrix(-4.16667,0,0,4.16667,1430.98,-661.571)">
        <path d="M343.436,252.712L289.203,158.777L275.575,158.777L322.441,240.591L302.5,240.591L255.265,158.777L208.031,240.59L160.796,158.777L106.564,252.712L154.498,252.712L171.535,223.202L164.538,211.082L147.5,240.591L127.558,240.591L160.796,183.018L201.034,252.712L215.057,252.712L255.265,183.018L295.502,252.712L343.436,252.712ZM259.006,211.082L235.242,252.712L248.967,252.712L266.004,223.202L259.006,211.082ZM181.106,158.777L194.733,158.777L218.666,200.228L211.699,212.182L181.106,158.777Z" style="fill:white;"/>
    </g>
</svg>
