<?xml version="1.0" encoding="iso-8859-1"?>
<!-- Generator: Adobe Illustrator 16.0.0, SVG Export Plug-In . SVG Version: 6.00 Build 0)  -->
<!DOCTYPE svg PUBLIC "-//W3C//DTD SVG 1.1//EN" "http://www.w3.org/Graphics/SVG/1.1/DTD/svg11.dtd">
<svg version="1.1" id="Capa_1" xmlns="http://www.w3.org/2000/svg" xmlns:xlink="http://www.w3.org/1999/xlink" x="0px" y="0px"
	 width="487.937px" height="487.937px" viewBox="0 0 487.937 487.937" style="enable-background:new 0 0 487.937 487.937;"
	 xml:space="preserve">
<g>
	<g id="iconos_17_">
		<polygon points="7.884,38.25 65.259,38.25 65.259,122.4 36.572,133.875 36.572,143.438 65.259,131.962 65.259,160.65 
			36.572,172.125 36.572,181.688 65.259,170.212 65.259,198.9 36.572,210.375 36.572,219.938 65.259,208.462 65.259,237.15 
			36.572,248.625 36.572,258.188 65.259,246.713 65.259,275.4 36.572,286.875 36.572,296.438 65.259,284.963 65.259,313.65 
			36.572,325.125 36.572,334.688 65.259,323.213 65.259,351.9 36.572,363.375 36.572,372.938 65.259,361.463 65.259,444.656 
			109.486,487.937 151.322,444.656 151.322,327.037 180.009,315.562 180.009,306 151.322,317.475 151.322,288.787 180.009,277.312 
			180.009,267.75 151.322,279.225 151.322,250.537 180.009,239.062 180.009,229.5 151.322,240.975 151.322,212.288 180.009,200.812 
			180.009,191.25 151.322,202.725 151.322,174.038 180.009,162.562 180.009,153 151.322,164.475 151.322,135.788 180.009,124.312 
			180.009,114.75 151.322,126.225 151.322,97.538 180.009,86.062 180.009,76.5 151.322,87.975 151.322,38.25 208.697,38.25 
			208.697,0 7.884,0 		"/>
		<path d="M349.945,177.499c-43.146,0-78.25,35.104-78.25,78.25c0,43.146,35.104,78.25,78.25,78.25
			c43.146,0,78.25-35.104,78.25-78.25C428.195,212.603,393.09,177.499,349.945,177.499z M349.945,314.118
			c-32.235,0-58.37-26.134-58.37-58.369s26.135-58.37,58.37-58.37c32.234,0,58.369,26.134,58.369,58.37
			C408.324,287.984,382.189,314.118,349.945,314.118z"/>
		<path d="M284.298,143.438l-65.255,114.75l65.255,114.75h130.499l65.255-114.75l-65.255-114.75H284.298z M349.945,343.552
			c-48.415,0-87.812-39.388-87.812-87.812c0-48.424,39.397-87.812,87.812-87.812s87.812,39.388,87.812,87.812
			C437.757,304.164,398.369,343.552,349.945,343.552z"/>
	</g>
</g>
<g>
</g>
<g>
</g>
<g>
</g>
<g>
</g>
<g>
</g>
<g>
</g>
<g>
</g>
<g>
</g>
<g>
</g>
<g>
</g>
<g>
</g>
<g>
</g>
<g>
</g>
<g>
</g>
<g>
</g>
</svg>
