<?xml version="1.0" standalone="no"?>
<!DOCTYPE svg PUBLIC "-//W3C//DTD SVG 20010904//EN"
 "http://www.w3.org/TR/2001/REC-SVG-20010904/DTD/svg10.dtd">
<svg version="1.0" xmlns="http://www.w3.org/2000/svg"
 width="232.000000pt" height="237.000000pt" viewBox="0 0 232.000000 237.000000"
 preserveAspectRatio="xMidYMid meet">
<metadata>
Created by potrace 1.15, written by Peter Selinger 2001-2017
</metadata>
<g transform="translate(0.000000,237.000000) scale(0.100000,-0.100000)"
fill="#fe5201" stroke="none">
<path d="M1090 2323 c-166 -15 -299 -52 -430 -118 -296 -149 -514 -417 -597
-732 -31 -120 -42 -336 -23 -465 67 -463 430 -843 900 -944 102 -22 343 -25
435 -6 573 121 961 611 932 1177 -15 284 -118 529 -309 731 -192 203 -434 321
-721 353 -94 11 -116 11 -187 4z m-380 -483 c46 -24 74 -55 99 -110 27 -60 26
-123 -3 -186 -78 -167 -315 -170 -398 -5 -100 197 106 402 302 301z m515 19
c55 -14 122 -70 146 -123 23 -50 24 -134 3 -184 -34 -82 -111 -133 -203 -133
-69 -1 -115 17 -159 61 -50 50 -66 87 -66 161 0 106 56 183 157 215 53 16 68
17 122 3z m613 -21 c55 -26 97 -84 113 -152 22 -99 -31 -205 -124 -249 -49
-24 -147 -22 -195 2 -79 41 -122 113 -122 203 1 69 27 125 80 171 70 60 158
69 248 25z m-570 -567 c79 -41 122 -113 122 -206 0 -140 -135 -248 -268 -216
-210 53 -243 329 -51 424 48 23 149 22 197 -2z m3 -569 c34 -17 65 -44 84 -71
27 -39 30 -50 30 -124 0 -76 -2 -85 -32 -129 -126 -180 -407 -93 -407 127 0
173 171 277 325 197z"/>
</g>
</svg>
